<svg width="14" height="15" viewBox="0 0 14 15" fill="none" xmlns="http://www.w3.org/2000/svg">
<path d="M0.636373 15C0.467596 15 0.305732 14.9342 0.186389 14.8169C0.0670463 14.6997 0 14.5408 0 14.375V0.624898C1.89327e-05 0.51629 0.0288536 0.409562 0.0836619 0.315233C0.13847 0.220904 0.21736 0.14223 0.312556 0.0869651C0.407753 0.0317006 0.515969 0.00175304 0.626538 7.46521e-05C0.737108 -0.00160373 0.846215 0.025045 0.943104 0.0773938L13.6706 6.95244C13.7703 7.0064 13.8535 7.08566 13.9115 7.18197C13.9694 7.27827 14 7.38808 14 7.49995C14 7.61181 13.9694 7.72163 13.9115 7.81793C13.8535 7.91423 13.7703 7.9935 13.6706 8.04745L0.943104 14.9225C0.849144 14.9733 0.743633 15 0.636373 15Z" fill="#F04C44"/>
</svg>
